<svg width="1396" height="785" viewBox="0 0 1396 785" fill="rgb(0, 0, 0, 0.0)" xmlns="http://www.w3.org/2000/svg">
<path d="M125.52 409V408.36C126.544 408.296 127.44 407.72 127.44 405.16V369.32C127.44 366.376 126.416 365.48 124.304 365.48C120.72 365.48 117.456 368.04 116.24 371.88H115.6V364.2H145.04V371.88H144.4C143.184 368.04 139.92 365.48 136.336 365.48C134.224 365.48 133.2 366.376 133.2 369.32V405.16C133.2 407.72 134.096 408.296 135.12 408.36V409H125.52Z" fill="black"/>
<path d="M148.225 409V408.36C149.249 408.296 150.145 407.72 150.145 405.16V368.04C150.145 365.48 149.249 364.904 148.225 364.84V364.2H155.905V387.304C157.633 381.48 161.281 376.36 167.105 376.36C172.225 376.36 175.745 380.392 175.745 386.408V405.16C175.745 407.72 176.641 408.296 177.665 408.36V409H168.065V408.36C169.089 408.296 169.985 407.72 169.985 405.16V386.408C169.985 382.12 167.873 379.112 164.737 379.112C159.169 379.112 155.905 388.776 155.905 395.88V405.16C155.905 407.72 156.801 408.296 157.825 408.36V409H148.225Z" fill="black"/>
<path d="M182.77 368.104C182.77 366.568 183.73 365.352 185.458 365.352C187.314 365.352 188.53 366.696 188.53 368.552C188.53 371.048 186.354 373.544 182.77 374.312C184.754 371.56 182.77 370.28 182.77 368.104ZM180.85 409V408.36C181.874 408.296 182.77 407.72 182.77 405.16V380.84C182.77 378.28 181.874 377.704 180.85 377.64V377H188.53V405.16C188.53 407.72 189.426 408.296 190.45 408.36V409H180.85Z" fill="black"/>
<path d="M193.663 409V408.36C194.687 408.296 195.583 407.72 195.583 405.16V380.84C195.583 378.28 194.687 377.704 193.663 377.64V377H201.343V387.304C203.071 381.48 206.719 376.36 212.543 376.36C217.663 376.36 221.183 380.392 221.183 386.408V405.16C221.183 407.72 222.079 408.296 223.103 408.36V409H213.503V408.36C214.527 408.296 215.423 407.72 215.423 405.16V386.408C215.423 382.12 213.311 379.112 210.175 379.112C204.607 379.112 201.343 388.776 201.343 395.88V405.16C201.343 407.72 202.239 408.296 203.263 408.36V409H193.663Z" fill="black"/>
<path d="M226.288 409V408.36C227.312 408.296 228.208 407.72 228.208 405.16V368.04C228.208 365.48 227.312 364.904 226.288 364.84V364.2H233.968V392.232L242.48 380.904C244.528 378.216 246.767 377 248.943 377C251.439 377 253.551 378.664 253.551 381.48C253.551 386.024 247.92 390.44 242.992 391.336L250.799 405.352C251.951 407.336 252.655 408.04 253.743 408.36V409H243.632V408.36C244.976 408.168 244.976 407.016 244.016 405.032L236.336 391.208L233.968 394.344V405.16C233.968 407.72 234.864 408.296 235.888 408.36V409H226.288ZM237.104 390.184H241.264C245.552 390.184 248.432 386.664 248.432 383.4C248.432 381.608 247.6 380.52 246.32 380.52C244.912 380.52 243.44 381.736 241.776 383.976L237.104 390.184Z" fill="black"/>
<path d="M257.872 405.352C257.872 403.24 259.409 401.704 261.521 401.704C263.633 401.704 265.169 403.24 265.169 405.352C265.169 407.464 263.633 409 261.521 409C259.409 409 257.872 407.464 257.872 405.352Z" fill="black"/>
<path d="M302.182 409.64C294.758 409.64 287.27 405.224 287.27 395.816V368.04C287.27 365.48 286.374 364.904 285.35 364.84V364.2H294.95V364.84C293.926 364.904 293.03 365.48 293.03 368.04V395.816C293.03 402.344 296.934 407.144 303.846 407.144C310.054 407.144 314.79 403.304 314.79 395.816V369.32C314.79 366.12 313.894 365.032 312.23 364.84V364.2H318.63V364.84C316.966 365.032 316.07 366.12 316.07 369.32V395.816C316.07 405.288 309.606 409.64 302.182 409.64Z" fill="black"/>
<path d="M321.85 409V408.36C322.874 408.296 323.77 407.72 323.77 405.16V380.84C323.77 378.28 322.874 377.704 321.85 377.64V377H329.53V387.304C331.258 381.48 334.906 376.36 340.73 376.36C345.85 376.36 349.37 380.392 349.37 386.408V405.16C349.37 407.72 350.266 408.296 351.29 408.36V409H341.69V408.36C342.714 408.296 343.61 407.72 343.61 405.16V386.408C343.61 382.12 341.498 379.112 338.362 379.112C332.794 379.112 329.53 388.776 329.53 395.88V405.16C329.53 407.72 330.426 408.296 331.45 408.36V409H321.85Z" fill="black"/>
<path d="M369.515 405.928C368.427 408.168 366.187 409.64 363.691 409.64C359.851 409.64 357.355 406.184 357.355 401V378.28H353.515V377C357.611 376.744 360.491 374.312 361.835 369.576H363.115V377H369.515V378.28H363.115V401.512C363.115 405.096 364.139 407.016 366.123 407.016C366.955 407.016 368.107 406.696 369.003 405.544L369.515 405.928Z" fill="black"/>
<path d="M372.725 409V408.36C373.749 408.296 374.645 407.72 374.645 405.16V368.04C374.645 365.48 373.749 364.904 372.725 364.84V364.2H380.405V387.304C382.133 381.48 385.781 376.36 391.605 376.36C396.725 376.36 400.245 380.392 400.245 386.408V405.16C400.245 407.72 401.141 408.296 402.165 408.36V409H392.565V408.36C393.589 408.296 394.485 407.72 394.485 405.16V386.408C394.485 382.12 392.373 379.112 389.237 379.112C383.669 379.112 380.405 388.776 380.405 395.88V405.16C380.405 407.72 381.301 408.296 382.325 408.36V409H372.725Z" fill="black"/>
<path d="M407.27 368.104C407.27 366.568 408.23 365.352 409.958 365.352C411.814 365.352 413.03 366.696 413.03 368.552C413.03 371.048 410.854 373.544 407.27 374.312C409.254 371.56 407.27 370.28 407.27 368.104ZM405.35 409V408.36C406.374 408.296 407.27 407.72 407.27 405.16V380.84C407.27 378.28 406.374 377.704 405.35 377.64V377H413.03V405.16C413.03 407.72 413.926 408.296 414.95 408.36V409H405.35Z" fill="black"/>
<path d="M418.163 409V408.36C419.187 408.296 420.082 407.72 420.082 405.16V380.84C420.082 378.28 419.187 377.704 418.163 377.64V377H425.842V387.304C427.57 381.48 431.219 376.36 437.043 376.36C442.163 376.36 445.682 380.392 445.682 386.408V405.16C445.682 407.72 446.579 408.296 447.603 408.36V409H438.003V408.36C439.027 408.296 439.922 407.72 439.922 405.16V386.408C439.922 382.12 437.81 379.112 434.674 379.112C429.106 379.112 425.842 388.776 425.842 395.88V405.16C425.842 407.72 426.739 408.296 427.763 408.36V409H418.163Z" fill="black"/>
<path d="M450.788 409V408.36C451.812 408.296 452.707 407.72 452.707 405.16V368.04C452.707 365.48 451.812 364.904 450.788 364.84V364.2H458.467V392.232L466.979 380.904C469.027 378.216 471.268 377 473.444 377C475.94 377 478.052 378.664 478.052 381.48C478.052 386.024 472.42 390.44 467.492 391.336L475.299 405.352C476.451 407.336 477.155 408.04 478.243 408.36V409H468.132V408.36C469.476 408.168 469.476 407.016 468.516 405.032L460.836 391.208L458.467 394.344V405.16C458.467 407.72 459.364 408.296 460.388 408.36V409H450.788ZM461.604 390.184H465.763C470.051 390.184 472.931 386.664 472.931 383.4C472.931 381.608 472.099 380.52 470.819 380.52C469.411 380.52 467.94 381.736 466.276 383.976L461.604 390.184Z" fill="black"/>
<path d="M482.372 405.352C482.372 403.24 483.909 401.704 486.021 401.704C488.133 401.704 489.668 403.24 489.668 405.352C489.668 407.464 488.133 409 486.021 409C483.909 409 482.372 407.464 482.372 405.352Z" fill="black"/>
<path d="M517.53 388.136C525.21 388.008 533.53 383.656 533.53 375.272C533.53 369.704 529.882 365.48 522.586 365.48C519.258 365.48 517.53 366.312 517.53 369.448V388.136ZM537.818 409.64C532.122 409.64 531.162 404.328 528.602 398.12C525.658 390.824 523.482 389.416 519.322 389.352C518.746 389.416 518.106 389.416 517.53 389.416V405.16C517.53 407.72 518.426 408.296 519.45 408.36V409H509.85V408.36C510.874 408.296 511.77 407.72 511.77 405.16V368.04C511.77 365.48 510.874 364.904 509.85 364.84V364.2H522.65C533.082 364.2 539.93 368.68 539.93 375.4C539.93 382.248 532.762 386.984 524.25 388.712C529.434 389.288 532.634 391.656 534.554 396.2L538.522 405.544C539.29 407.336 540.698 408.04 541.594 408.36V409C540.314 409.448 538.906 409.64 537.818 409.64Z" fill="black"/>
<path d="M568.672 401.32L569.184 401.704C566.88 405.928 562.4 409.64 556.704 409.64C548.448 409.64 541.92 401.832 541.92 392.744C541.92 383.656 548.448 376.36 557.344 376.36C563.744 376.36 568.48 380.136 568.48 384.488C568.48 391.08 557.856 394.344 548.64 395.816C550.048 403.048 555.168 406.184 559.84 406.184C563.36 406.184 566.816 404.392 568.672 401.32ZM548.448 394.536C557.088 393.192 562.72 390.184 562.72 384.104C562.72 380.712 560.672 377.64 557.088 377.64C552.096 377.64 548.256 383.72 548.256 391.72C548.256 392.744 548.32 393.64 548.448 394.536Z" fill="black"/>
<path d="M587.765 405.928C586.677 408.168 584.437 409.64 581.941 409.64C578.101 409.64 575.605 406.184 575.605 401V378.28H571.765V377C575.861 376.744 578.741 374.312 580.085 369.576H581.365V377H587.765V378.28H581.365V401.512C581.365 405.096 582.389 407.016 584.373 407.016C585.205 407.016 586.357 406.696 587.253 405.544L587.765 405.928Z" fill="black"/>
<path d="M590.975 409V408.36C591.999 408.296 592.895 407.72 592.895 405.16V368.04C592.895 365.48 591.999 364.904 590.975 364.84V364.2H598.655V387.304C600.383 381.48 604.031 376.36 609.855 376.36C614.975 376.36 618.495 380.392 618.495 386.408V405.16C618.495 407.72 619.391 408.296 620.415 408.36V409H610.815V408.36C611.839 408.296 612.735 407.72 612.735 405.16V386.408C612.735 382.12 610.623 379.112 607.487 379.112C601.919 379.112 598.655 388.776 598.655 395.88V405.16C598.655 407.72 599.551 408.296 600.575 408.36V409H590.975Z" fill="black"/>
<path d="M625.52 368.104C625.52 366.568 626.48 365.352 628.208 365.352C630.064 365.352 631.28 366.696 631.28 368.552C631.28 371.048 629.104 373.544 625.52 374.312C627.504 371.56 625.52 370.28 625.52 368.104ZM623.6 409V408.36C624.624 408.296 625.52 407.72 625.52 405.16V380.84C625.52 378.28 624.624 377.704 623.6 377.64V377H631.28V405.16C631.28 407.72 632.176 408.296 633.2 408.36V409H623.6Z" fill="black"/>
<path d="M636.413 409V408.36C637.437 408.296 638.333 407.72 638.333 405.16V380.84C638.333 378.28 637.437 377.704 636.413 377.64V377H644.093V387.304C645.821 381.48 649.469 376.36 655.293 376.36C660.413 376.36 663.933 380.392 663.933 386.408V405.16C663.933 407.72 664.829 408.296 665.853 408.36V409H656.253V408.36C657.277 408.296 658.173 407.72 658.173 405.16V386.408C658.173 382.12 656.061 379.112 652.925 379.112C647.357 379.112 644.093 388.776 644.093 395.88V405.16C644.093 407.72 644.989 408.296 646.013 408.36V409H636.413Z" fill="black"/>
<path d="M669.038 409V408.36C670.062 408.296 670.958 407.72 670.958 405.16V368.04C670.958 365.48 670.062 364.904 669.038 364.84V364.2H676.718V392.232L685.23 380.904C687.278 378.216 689.518 377 691.694 377C694.19 377 696.302 378.664 696.302 381.48C696.302 386.024 690.67 390.44 685.742 391.336L693.55 405.352C694.702 407.336 695.406 408.04 696.494 408.36V409H686.382V408.36C687.726 408.168 687.726 407.016 686.766 405.032L679.086 391.208L676.718 394.344V405.16C676.718 407.72 677.614 408.296 678.638 408.36V409H669.038ZM679.854 390.184H684.014C688.302 390.184 691.182 386.664 691.182 383.4C691.182 381.608 690.35 380.52 689.07 380.52C687.662 380.52 686.19 381.736 684.526 383.976L679.854 390.184Z" fill="black"/>
</svg>
